Patient4_TMGait_0pt5_01_right_24_GRF.mot
version=1
nRows=26
nColumns=19
inDegrees=no
endheader
time	F1x	F1y	F1z	M1x	M1y	M1z	F2x	F2y	F2z	M2x	M2y	M2z	EC1x	EC1y	EC1z	EC2x	EC2y	EC2z
31.45	-5.6285	781.4366	67.677	-288.5629	-61.4029	718.1289	2.9805	0.76952	-8.7769	2.882	-0.75932	-7.8613	-0.0592	0.0182	-0.0073	-0.0462	0.0165	0.9585
31.4633	0.38593	772.9393	65.844	-285.6186	-57.9016	708.5785	1.9704	1.4914	-5.9759	2.3279	-0.39224	-4.1996	-0.0592	0.0182	-0.0073	-0.0462	0.0165	0.9585
31.4766	6.3015	763.7667	64.2163	-282.3686	-54.4797	697.7841	1.1094	2.1433	-3.5832	1.8686	-0.098503	-1.0639	-0.0592	0.0182	-0.0073	-0.0462	0.0165	0.9585
31.4899	11.7564	754.816	62.9009	-279.127	-51.3479	686.6642	0.43692	2.6876	-1.7431	1.5347	0.11031	1.3735	-0.0592	0.0182	-0.0073	-0.0462	0.0165	0.9585
31.5031	16.5627	746.9634	61.9183	-276.2148	-48.6042	676.1693	-0.041427	3.1063	-0.46548	1.3202	0.24757	3.0974	-0.0592	0.0182	-0.0073	-0.0462	0.0165	0.9585
31.5164	20.6572	740.9143	61.2046	-273.8988	-46.2387	667.0945	-0.35707	3.404	0.33472	1.2011	0.32487	4.2033	-0.0592	0.0182	-0.0073	-0.0462	0.0165	0.9585
31.5297	24.057	737.0506	60.6848	-272.3316	-44.2063	659.9123	-0.55266	3.5785	0.75964	1.1412	0.37027	4.8043	-0.0592	0.0182	-0.0073	-0.0462	0.0165	0.9585
31.543	26.8215	735.398	60.286	-271.5355	-42.4448	654.7412	-0.66445	3.5928	0.9275	1.094	0.39354	4.9729	-0.0592	0.0182	-0.0073	-0.0462	0.0165	0.9585
31.5563	29.0574	735.7272	59.9528	-271.435	-40.8911	651.4263	-0.7363	3.3974	0.93584	1.0092	0.41003	4.7668	-0.0592	0.0182	-0.0073	-0.0462	0.0165	0.9585
31.5696	30.8924	737.6709	59.6536	-271.9005	-39.4944	649.6624	-0.77289	2.9073	0.87127	0.83199	0.40999	4.1653	-0.0592	0.0182	-0.0073	-0.0462	0.0165	0.9585
31.5829	32.4565	740.81	59.3836	-272.7775	-38.2246	649.0897	-0.79082	2.0437	0.78234	0.51414	0.39677	3.143	-0.0592	0.0182	-0.0073	-0.0462	0.0165	0.9585
31.5961	33.861	744.7179	59.1637	-273.904	-37.0771	649.3345	-0.78621	0.72623	0.7091	0.01292	0.35678	1.6389	-0.0592	0.0182	-0.0073	-0.0462	0.0165	0.9585
31.6094	35.1787	748.9608	59.032	-275.1129	-36.0698	650.0325	-0.75026	-1.09	0.67407	-0.69597	0.27617	-0.38808	-0.0592	0.0182	-0.0073	-0.0462	0.0165	0.9585
31.6227	36.4489	753.0656	59.0359	-276.222	-35.2384	650.7848	-0.6607	-3.3691	0.69301	-1.5984	0.13398	-2.8943	-0.0592	0.0182	-0.0073	-0.0462	0.0165	0.9585
31.636	37.6554	756.5342	59.2056	-277.0396	-34.6174	651.1838	-0.46878	-5.9265	0.76908	-2.6161	-0.089666	-5.6894	-0.0592	0.0182	-0.0073	-0.0462	0.0165	0.9585
31.6493	38.7674	758.8561	59.5507	-277.3733	-34.2217	650.8021	-0.12733	-8.3362	0.8993	-3.5721	-0.41213	-8.3153	-0.0592	0.0182	-0.0073	-0.0462	0.0165	0.9585
31.6626	39.7372	759.5257	60.0502	-277.0361	-34.0447	649.2271	0.43349	-9.8438	1.0686	-4.1568	-0.84334	-9.9723	-0.0592	0.0182	-0.0073	-0.0462	0.0165	0.9585
31.6759	40.505	758.0205	60.6697	-275.8406	-34.0736	646.0393	1.2597	-9.2658	1.2464	-3.8916	-1.3722	-9.3959	-0.0592	0.0182	-0.0073	-0.0462	0.0165	0.9585
31.6891	41.0372	753.8306	61.3587	-273.607	-34.277	640.8194	2.3711	-4.9574	1.3802	-2.1135	-1.9533	-4.835	-0.0592	0.0182	-0.0073	-0.0462	0.0165	0.9585
31.7024	41.3052	746.516	62.0374	-270.1845	-34.5992	633.2145	3.7221	5.1687	1.3784	2.0146	-2.4624	5.9397	-0.0592	0.0182	-0.0073	-0.0462	0.0165	0.9585
31.7157	41.3221	735.7038	62.6023	-265.4547	-34.9547	622.9006	5.1543	23.4736	1.1157	9.4327	-2.6872	25.4702	-0.0592	0.0182	-0.0073	-0.0462	0.0165	0.9585
31.729	41.1117	721.064	62.9228	-259.3239	-35.2304	609.5897	6.3607	52.1885	0.42516	21.0231	-2.3131	56.1728	-0.0592	0.0182	-0.0073	-0.0462	0.0165	0.9585
31.7423	40.7008	702.1951	62.841	-251.6811	-35.287	592.9236	6.7928	92.7703	-0.89121	37.347	-0.90484	99.642	-0.0592	0.0182	-0.0073	-0.0462	0.0165	0.9585
31.7556	40.1126	678.5411	62.1647	-242.3683	-34.9567	572.4072	5.5081	144.9398	-3.0131	58.2644	2.1004	155.6003	-0.0592	0.0182	-0.0073	-0.0462	0.0165	0.9585
31.7689	39.3212	649.4523	60.6871	-231.2038	-34.0744	547.4741	1.3626	205.5528	-6.0624	82.4855	7.256	220.6873	-0.0592	0.0182	-0.0073	-0.0462	0.0165	0.9585
31.7821	38.2947	614.4158	58.2433	-218.0639	-32.517	517.6546	-5.7595	268.4704	-10.1204	107.5301	14.6297	288.2734	-0.0592	0.0182	-0.0073	-0.0462	0.0165	0.9585
